<svg width="844" height="166" viewBox="0 0 844 166" fill="none" xmlns="http://www.w3.org/2000/svg">
<g clip-path="url(#clip0_157_1053)">
<path d="M55.2762 38.8037C63.5048 10.6808 84.6698 5.06125 94.2237 5.76686C103.71 6.46748 126.128 14.5651 129.967 43.9574C133.806 73.3496 111.023 115.341 99.8585 133.132L70.3531 130.953C61.8989 111.955 47.0477 66.9267 55.2762 38.8037Z" fill="url(#paint0_linear_157_1053)" stroke="white" stroke-width="6"/>
<path d="M107.645 47.4662C128.176 25.5432 148.629 29.5553 156.29 34.3018C163.896 39.0147 178.747 55.9842 167.709 84.2448C156.671 112.505 117.223 140.726 99.2437 152.034L75.5859 137.375C77.7179 116.54 87.1144 69.3893 107.645 47.4662Z" fill="url(#paint1_linear_157_1053)" stroke="white" stroke-width="6"/>
<path d="M24.0387 91.8765C10.5991 65.0836 21.5784 47.464 28.748 42.0033C35.8669 36.5813 57.088 28.7211 79.8418 48.9072C102.596 69.0933 126.388 107.669 130.719 128.364L97.5038 153.253C78.6153 143.958 37.4783 118.669 24.0387 91.8765Z" fill="url(#paint2_linear_157_1053)" stroke="white" stroke-width="6"/>
<path d="M293.52 32.4V48.016H266.128V122H250.512V48.016H223.12V32.4H293.52ZM295.995 98.32V58H311.611V94.224C311.611 96.7413 312.23 99.0453 313.467 101.136C314.704 103.184 316.347 104.827 318.395 106.064C320.486 107.259 322.768 107.856 325.243 107.856C327.803 107.856 330.107 107.259 332.155 106.064C334.203 104.827 335.846 103.184 337.083 101.136C338.32 99.0453 338.939 96.7413 338.939 94.224V58H354.555L354.619 122H339.003L338.939 116.176C336.72 118.48 334.096 120.315 331.067 121.68C328.038 123.003 324.795 123.664 321.339 123.664C316.688 123.664 312.443 122.533 308.603 120.272C304.763 117.968 301.691 114.917 299.387 111.12C297.126 107.28 295.995 103.013 295.995 98.32ZM367.805 122V26H383.421V122H367.805ZM398.805 58H414.421V122H398.805V58ZM406.741 49.744C404.437 49.744 402.496 48.9973 400.917 47.504C399.338 45.968 398.549 44.048 398.549 41.744C398.549 39.4827 399.338 37.584 400.917 36.048C402.496 34.512 404.416 33.744 406.677 33.744C408.938 33.744 410.837 34.512 412.373 36.048C413.952 37.584 414.741 39.4827 414.741 41.744C414.741 44.048 413.973 45.968 412.437 47.504C410.901 48.9973 409.002 49.744 406.741 49.744ZM444.421 154H428.805V58H444.421V66.128C446.512 63.2267 449.072 60.88 452.101 59.088C455.173 57.2533 458.757 56.336 462.853 56.336C467.546 56.336 471.92 57.2107 475.973 58.96C480.026 60.7093 483.589 63.1413 486.661 66.256C489.776 69.328 492.186 72.8907 493.893 76.944C495.642 80.9973 496.517 85.3493 496.517 90C496.517 94.6507 495.642 99.024 493.893 103.12C492.186 107.216 489.776 110.821 486.661 113.936C483.589 117.008 480.026 119.419 475.973 121.168C471.92 122.917 467.546 123.792 462.853 123.792C458.757 123.792 455.173 122.896 452.101 121.104C449.072 119.269 446.512 116.901 444.421 114V154ZM462.661 71.376C459.418 71.376 456.517 72.2293 453.957 73.936C451.397 75.6 449.392 77.84 447.941 80.656C446.49 83.472 445.765 86.5867 445.765 90C445.765 93.4133 446.49 96.5493 447.941 99.408C449.392 102.224 451.397 104.485 453.957 106.192C456.517 107.856 459.418 108.688 462.661 108.688C465.946 108.688 468.954 107.856 471.685 106.192C474.416 104.528 476.592 102.288 478.213 99.472C479.834 96.6133 480.645 93.456 480.645 90C480.645 86.5867 479.834 83.472 478.213 80.656C476.592 77.84 474.416 75.6 471.685 73.936C468.997 72.2293 465.989 71.376 462.661 71.376ZM606.645 32.4V48.016H579.253V122H563.637V48.016H536.245V32.4H606.645ZM611.119 122L611.055 58H626.671L626.735 63.696C628.911 61.392 631.514 59.5787 634.543 58.256C637.572 56.8907 640.836 56.208 644.335 56.208C646.682 56.208 649.028 56.5493 651.375 57.232L645.231 72.976C643.61 72.336 641.988 72.016 640.367 72.016C637.85 72.016 635.546 72.6347 633.455 73.872C631.407 75.0667 629.764 76.7093 628.527 78.8C627.332 80.848 626.735 83.1307 626.735 85.648V122H611.119ZM658.305 58H673.921V122H658.305V58ZM666.241 49.744C663.937 49.744 661.996 48.9973 660.417 47.504C658.838 45.968 658.049 44.048 658.049 41.744C658.049 39.4827 658.838 37.584 660.417 36.048C661.996 34.512 663.916 33.744 666.177 33.744C668.438 33.744 670.337 34.512 671.873 36.048C673.452 37.584 674.241 39.4827 674.241 41.744C674.241 44.048 673.473 45.968 671.937 47.504C670.401 48.9973 668.502 49.744 666.241 49.744ZM736.061 58H751.677V122H736.061L735.357 114.064C733.608 116.923 731.282 119.248 728.381 121.04C725.522 122.789 722.13 123.664 718.205 123.664C713.469 123.664 709.032 122.768 704.893 120.976C700.754 119.184 697.106 116.709 693.949 113.552C690.834 110.395 688.381 106.747 686.589 102.608C684.84 98.4693 683.965 94.032 683.965 89.296C683.965 84.7307 684.797 80.4427 686.461 76.432C688.168 72.4213 690.536 68.9013 693.565 65.872C696.594 62.8427 700.093 60.4747 704.061 58.768C708.029 57.0613 712.296 56.208 716.861 56.208C721.085 56.208 724.861 57.1467 728.189 59.024C731.56 60.9013 734.418 63.2907 736.765 66.192L736.061 58ZM717.821 108.624C721.149 108.624 724.093 107.792 726.653 106.128C729.213 104.464 731.218 102.224 732.669 99.408C734.12 96.5493 734.845 93.4133 734.845 90C734.845 86.544 734.12 83.408 732.669 80.592C731.218 77.7333 729.192 75.472 726.589 73.808C724.029 72.144 721.106 71.312 717.821 71.312C714.536 71.312 711.528 72.1653 708.797 73.872C706.109 75.536 703.954 77.776 702.333 80.592C700.754 83.408 699.965 86.544 699.965 90C699.965 93.456 700.776 96.592 702.397 99.408C704.018 102.224 706.173 104.464 708.861 106.128C711.592 107.792 714.578 108.624 717.821 108.624ZM764.805 122V26H780.421V122H764.805ZM814.685 123.152C811.357 122.939 808.136 122.277 805.021 121.168C801.949 120.016 799.218 118.459 796.829 116.496C794.44 114.533 792.605 112.187 791.325 109.456L804.509 103.824C805.021 104.677 805.853 105.595 807.005 106.576C808.157 107.515 809.522 108.304 811.101 108.944C812.722 109.584 814.493 109.904 816.413 109.904C818.034 109.904 819.57 109.691 821.021 109.264C822.514 108.795 823.709 108.091 824.605 107.152C825.544 106.213 826.013 104.997 826.013 103.504C826.013 101.925 825.458 100.709 824.349 99.856C823.282 98.96 821.917 98.2987 820.253 97.872C818.632 97.4027 817.053 96.976 815.517 96.592C811.464 95.7813 807.688 94.5227 804.189 92.816C800.733 91.1093 797.938 88.912 795.805 86.224C793.714 83.4933 792.669 80.208 792.669 76.368C792.669 72.144 793.778 68.496 795.997 65.424C798.258 62.352 801.181 59.984 804.765 58.32C808.392 56.656 812.296 55.824 816.477 55.824C821.554 55.824 826.205 56.8907 830.429 59.024C834.696 61.1147 838.066 64.08 840.541 67.92L828.189 75.216C827.592 74.192 826.76 73.2533 825.693 72.4C824.626 71.504 823.41 70.7787 822.045 70.224C820.68 69.6267 819.25 69.2853 817.757 69.2C815.837 69.1147 814.088 69.2853 812.509 69.712C810.93 70.1387 809.65 70.864 808.669 71.888C807.73 72.912 807.261 74.2773 807.261 75.984C807.261 77.6053 807.901 78.8213 809.181 79.632C810.461 80.4 811.997 80.9973 813.789 81.424C815.624 81.8507 817.373 82.32 819.037 82.832C822.792 84.0693 826.312 85.584 829.597 87.376C832.925 89.168 835.592 91.3653 837.597 93.968C839.602 96.5707 840.562 99.6853 840.477 103.312C840.477 107.451 839.24 111.077 836.765 114.192C834.29 117.264 831.09 119.611 827.165 121.232C823.282 122.853 819.122 123.493 814.685 123.152Z" fill="white"/>
</g>
<defs>
<linearGradient id="paint0_linear_157_1053" x1="86.6642" y1="9.52962" x2="90.1701" y2="75.0035" gradientUnits="userSpaceOnUse">
<stop stop-color="#FF6CD6"/>
<stop offset="1" stop-color="#FBF0C4"/>
</linearGradient>
<linearGradient id="paint1_linear_157_1053" x1="165.206" y1="44.8617" x2="116.285" y2="134.639" gradientUnits="userSpaceOnUse">
<stop stop-color="#666CFF"/>
<stop offset="1" stop-color="#FBF0C4"/>
</linearGradient>
<linearGradient id="paint2_linear_157_1053" x1="29.5304" y1="41.4074" x2="108.397" y2="144.956" gradientUnits="userSpaceOnUse">
<stop stop-color="#0C7FE9"/>
<stop offset="1" stop-color="#FBEFC3"/>
</linearGradient>
<clipPath id="clip0_157_1053">
<rect width="844" height="166" fill="white"/>
</clipPath>
</defs>
</svg>
