<?xml version="1.0" standalone="no"?>
<!DOCTYPE svg PUBLIC "-//W3C//DTD SVG 20010904//EN"
 "http://www.w3.org/TR/2001/REC-SVG-20010904/DTD/svg10.dtd">
<svg version="1.0" xmlns="http://www.w3.org/2000/svg"
 width="750.000000pt" height="750.000000pt" viewBox="0 0 750.000000 750.000000"
 preserveAspectRatio="xMidYMid meet">
<metadata>
Created by potrace 1.14, written by Peter Selinger 2001-2017
</metadata>
<g transform="translate(0.000000,750.000000) scale(0.100000,-0.100000)"
fill="#000000" stroke="none">
<path d="M3428 6925 c-59 -13 -115 -26 -125 -29 -10 -3 -21 -6 -25 -6 -4 0
-28 -9 -53 -20 -25 -11 -46 -19 -48 -19 -7 1 -74 -28 -151 -67 -224 -113 -401
-261 -590 -494 -77 -96 -178 -271 -257 -450 -41 -94 -49 -105 -70 -103 -150
16 -387 3 -522 -27 -104 -24 -294 -93 -377 -137 -124 -66 -165 -97 -257 -189
-199 -199 -347 -522 -380 -834 -10 -87 -10 -298 0 -385 31 -290 116 -559 274
-868 51 -99 193 -323 246 -387 12 -15 33 -42 47 -60 24 -32 108 -133 175 -209
102 -117 414 -418 561 -541 16 -14 45 -38 65 -55 63 -53 258 -208 303 -240 16
-11 33 -25 40 -30 6 -6 47 -36 91 -67 44 -32 85 -61 90 -66 16 -13 221 -154
279 -192 264 -170 328 -210 336 -210 4 0 10 -4 12 -8 3 -8 17 -16 178 -110
198 -115 331 -187 493 -269 l129 -65 21 20 c12 11 63 46 112 78 50 33 92 62
93 67 2 4 8 7 13 7 12 0 308 200 464 313 61 44 133 96 160 115 28 20 55 40 61
46 6 6 23 20 38 31 81 59 418 327 446 355 3 3 34 30 70 60 36 30 70 59 76 65
6 5 49 44 95 85 179 160 443 424 579 580 30 34 65 75 78 89 48 54 221 279 284
371 243 353 396 720 453 1085 37 231 30 485 -19 715 -13 62 -68 216 -107 301
-39 84 -150 271 -182 304 -7 7 -26 30 -44 52 -86 106 -197 203 -310 271 -79
47 -258 115 -339 128 -21 3 -41 7 -44 9 -13 8 -154 19 -245 19 -125 0 -230 -9
-320 -29 -38 -8 -83 -18 -99 -21 -16 -2 -37 -9 -47 -14 -10 -6 -20 -10 -24
-10 -3 0 -24 39 -47 88 -136 286 -333 516 -605 706 -29 20 -57 36 -62 36 -5 0
-11 4 -13 8 -7 18 -227 120 -333 155 -171 57 -243 70 -410 72 -125 2 -168 -1
-257 -20z"/>
</g>
</svg>
